<?xml version="1.0" encoding="utf-8"?>
<!-- Generator: Adobe Illustrator 16.0.0, SVG Export Plug-In . SVG Version: 6.00 Build 0)  -->
<!DOCTYPE svg PUBLIC "-//W3C//DTD SVG 1.1//EN" "http://www.w3.org/Graphics/SVG/1.1/DTD/svg11.dtd" [
	<!ENTITY ns_extend "http://ns.adobe.com/Extensibility/1.0/">
	<!ENTITY ns_ai "http://ns.adobe.com/AdobeIllustrator/10.0/">
	<!ENTITY ns_graphs "http://ns.adobe.com/Graphs/1.0/">
	<!ENTITY ns_vars "http://ns.adobe.com/Variables/1.0/">
	<!ENTITY ns_imrep "http://ns.adobe.com/ImageReplacement/1.0/">
	<!ENTITY ns_sfw "http://ns.adobe.com/SaveForWeb/1.0/">
	<!ENTITY ns_custom "http://ns.adobe.com/GenericCustomNamespace/1.0/">
	<!ENTITY ns_adobe_xpath "http://ns.adobe.com/XPath/1.0/">
]>
<svg version="1.1" id="Capa_1" xmlns:x="&ns_extend;" xmlns:i="&ns_ai;" xmlns:graph="&ns_graphs;"
	 xmlns="http://www.w3.org/2000/svg" xmlns:xlink="http://www.w3.org/1999/xlink" x="0px" y="0px" width="300px" height="300px"
	 viewBox="0 0 300 300" enable-background="new 0 0 300 300" xml:space="preserve">
<metadata>
	<sfw  xmlns="&ns_sfw;">
		<slices></slices>
		<sliceSourceBounds  height="290.435" width="300" x="-0.5" y="5.282" bottomLeftOrigin="true"></sliceSourceBounds>
	</sfw>
</metadata>
<g>
	<path fill="#E5E9EA" d="M296.242,146.487c5.438-5.981,4.912-15.148-1.173-20.47L160.995,8.702c-6.085-5.322-15.842-5.21-21.8,0.251
		L4.666,132.271c-5.958,5.462-6.25,14.617-0.647,20.441l3.373,3.512c5.596,5.824,14.641,6.518,20.189,1.547l10.054-9.004v131.816
		c0,8.087,6.553,14.634,14.635,14.634h52.44c8.082,0,14.635-6.547,14.635-14.634v-92.219h66.888v92.219
		c-0.116,8.081,5.666,14.628,13.747,14.628h55.574c8.081,0,14.635-6.547,14.635-14.634V150.623c0,0,2.777,2.434,6.203,5.444
		c3.419,3.005,10.602,0.596,16.04-5.392L296.242,146.487z"/>
</g>
</svg>
