<?xml version="1.0" encoding="utf-8"?>
<!-- Generator: Adobe Illustrator 16.0.0, SVG Export Plug-In . SVG Version: 6.00 Build 0)  -->
<!DOCTYPE svg PUBLIC "-//W3C//DTD SVG 1.1//EN" "http://www.w3.org/Graphics/SVG/1.1/DTD/svg11.dtd" [
	<!ENTITY ns_extend "http://ns.adobe.com/Extensibility/1.0/">
	<!ENTITY ns_ai "http://ns.adobe.com/AdobeIllustrator/10.0/">
	<!ENTITY ns_graphs "http://ns.adobe.com/Graphs/1.0/">
	<!ENTITY ns_vars "http://ns.adobe.com/Variables/1.0/">
	<!ENTITY ns_imrep "http://ns.adobe.com/ImageReplacement/1.0/">
	<!ENTITY ns_sfw "http://ns.adobe.com/SaveForWeb/1.0/">
	<!ENTITY ns_custom "http://ns.adobe.com/GenericCustomNamespace/1.0/">
	<!ENTITY ns_adobe_xpath "http://ns.adobe.com/XPath/1.0/">
]>
<svg version="1.1" id="Layer_1" xmlns:x="&ns_extend;" xmlns:i="&ns_ai;" xmlns:graph="&ns_graphs;"
	 xmlns="http://www.w3.org/2000/svg" xmlns:xlink="http://www.w3.org/1999/xlink" x="0px" y="0px" width="300px" height="300px"
	 viewBox="0 0 300 300" enable-background="new 0 0 300 300" xml:space="preserve">
<metadata>
	<sfw  xmlns="&ns_sfw;">
		<slices></slices>
		<sliceSourceBounds  height="300" width="300" y="0.5" x="-0.5" bottomLeftOrigin="true"></sliceSourceBounds>
	</sfw>
</metadata>
<circle fill="#F39600" cx="150" cy="150" r="150"/>
<path fill="#FFFFFF" d="M220,115.625c0-0.625,0-1.25-0.625-1.875v-0.625c-1.875-5.625-6.875-9.375-13.125-9.375h1.25
	c0,0-24.375-3.75-57.5-3.75c-32.5,0-57.5,3.75-57.5,3.75h1.25c-6.25,0-11.25,3.75-13.125,9.375v0.625c0,0.625,0,1.25-0.625,1.875
	C79.375,121.875,77.5,135,77.5,150s1.875,28.125,2.5,34.375c0,0.625,0,1.25,0.625,1.875v0.625C82.5,192.5,87.5,196.25,93.75,196.25
	H92.5c0,0,24.375,3.75,57.5,3.75c32.5,0,57.5-3.75,57.5-3.75h-1.25c6.25,0,11.25-3.75,13.125-9.375v-0.625
	c0-0.625,0-1.25,0.625-1.875c0.625-6.25,2.5-19.375,2.5-34.375S221.25,121.875,220,115.625z M171.25,153.125l-29.375,21.25
	C141.25,175,140.625,175,140,175s-1.25,0-1.875-0.625c-1.25-0.625-1.875-1.875-1.875-3.125v-42.5c0-1.25,0.625-2.5,1.875-3.125
	s2.5-0.625,3.75,0l29.375,21.25c0.625,0.625,1.25,1.875,1.25,3.125C173.125,151.25,172.5,152.5,171.25,153.125z"/>
</svg>
